<?xml version="1.0" encoding="UTF-8" standalone="no"?>
<!DOCTYPE svg PUBLIC "-//W3C//DTD SVG 1.1//EN"
 "http://www.w3.org/Graphics/SVG/1.1/DTD/svg11.dtd">
<!-- Generated by graphviz version 2.40.1 (20161225.0304)
 -->
<!-- Title: a_nice_graph Pages: 1 -->
<svg width="353pt" height="624pt"
 viewBox="0.00 0.00 353.25 624.00" xmlns="http://www.w3.org/2000/svg" xmlns:xlink="http://www.w3.org/1999/xlink">
<g id="graph0" class="graph" transform="scale(1 1) rotate(0) translate(4 620)">
<title>a_nice_graph</title>
<polygon fill="#ffffff" stroke="transparent" points="-4,4 -4,-620 349.25,-620 349.25,4 -4,4"/>
<text text-anchor="middle" x="18.0035" y="-585" font-family="Times,serif" font-size="30.00" fill="#000000">C</text>
<!-- a -->
<g id="node1" class="node">
<title>a</title>
<polygon fill="none" stroke="#000000" stroke-width="3" points="196.5993,-572 98.1107,-572 98.1107,-536 196.5993,-536 196.5993,-572"/>
<text text-anchor="middle" x="147.355" y="-548" font-family="Helvetica,sans-Serif" font-size="20.00" fill="#000000">Elevation</text>
</g>
<!-- b -->
<g id="node2" class="node">
<title>b</title>
<polygon fill="none" stroke="#000000" stroke-width="3" points="172.5652,-476 .1448,-476 .1448,-420 172.5652,-420 172.5652,-476"/>
<text text-anchor="middle" x="86.355" y="-454" font-family="Helvetica,sans-Serif" font-size="20.00" fill="#000000">Floral Abundance</text>
<text text-anchor="middle" x="86.355" y="-430" font-family="Helvetica,sans-Serif" font-size="20.00" fill="#000000">R² = 0.19</text>
</g>
<!-- a&#45;&gt;b -->
<g id="edge1" class="edge">
<title>a&#45;&gt;b</title>
<path fill="none" stroke="#ff0000" stroke-width="2" d="M136.7296,-535.5362C128.7069,-521.5951 117.4347,-502.0074 107.5869,-484.8948"/>
<polygon fill="#ff0000" stroke="#ff0000" stroke-width="2" points="110.6131,-483.1362 102.5917,-476.2146 104.546,-486.6277 110.6131,-483.1362"/>
<text text-anchor="middle" x="147.184" y="-500" font-family="Times,serif" font-size="20.00" fill="#000000">&#45;0.44</text>
</g>
<!-- c -->
<g id="node3" class="node">
<title>c</title>
<polygon fill="none" stroke="#000000" stroke-width="3" points="345.1451,-360 71.5649,-360 71.5649,-280 345.1451,-280 345.1451,-360"/>
<text text-anchor="middle" x="208.355" y="-338" font-family="Helvetica,sans-Serif" font-size="20.00" fill="#000000">Floral Phylogenetic Diversity,</text>
<text text-anchor="middle" x="208.355" y="-314" font-family="Helvetica,sans-Serif" font-size="20.00" fill="#000000"> (Faithʹs PD)</text>
<text text-anchor="middle" x="208.355" y="-290" font-family="Helvetica,sans-Serif" font-size="20.00" fill="#000000">R² = 0.20</text>
</g>
<!-- a&#45;&gt;c -->
<g id="edge2" class="edge">
<title>a&#45;&gt;c</title>
<path fill="none" stroke="#ff0000" stroke-width="2" d="M162.0827,-535.7748C165.9054,-530.3175 169.6918,-524.1437 172.355,-518 192.9798,-470.4215 201.7901,-411.4574 205.5527,-370.3027"/>
<polygon fill="#ff0000" stroke="#ff0000" stroke-width="2" points="209.0483,-370.5008 206.4046,-360.2411 202.0733,-369.9102 209.0483,-370.5008"/>
<text text-anchor="middle" x="220.184" y="-442" font-family="Times,serif" font-size="20.00" fill="#000000">&#45;0.45</text>
</g>
<!-- b&#45;&gt;c -->
<g id="edge3" class="edge">
<title>b&#45;&gt;c</title>
<path fill="none" stroke="#000000" stroke-width="2" d="M120.028,-412.671C133.2394,-398.8098 148.6065,-382.6869 162.7837,-367.8126"/>
<polygon fill="#000000" stroke="#000000" stroke-width="2" points="117.4943,-410.2563 113.1284,-419.9099 122.5614,-415.0859 117.4943,-410.2563"/>
<polygon fill="#000000" stroke="#000000" stroke-width="2" points="165.7053,-369.8201 170.0712,-360.1666 160.6382,-364.9905 165.7053,-369.8201"/>
<text text-anchor="middle" x="168.855" y="-384" font-family="Times,serif" font-size="20.00" fill="#000000">0.54</text>
</g>
<!-- e -->
<g id="node5" class="node">
<title>e</title>
<polygon fill="none" stroke="#000000" stroke-width="3" points="183.9036,-80 2.8064,-80 2.8064,0 183.9036,0 183.9036,-80"/>
<text text-anchor="middle" x="93.355" y="-58" font-family="Helvetica,sans-Serif" font-size="20.00" fill="#000000">Nestedness</text>
<text text-anchor="middle" x="93.355" y="-34" font-family="Helvetica,sans-Serif" font-size="20.00" fill="#000000"> (Weighted NODF)</text>
<text text-anchor="middle" x="93.355" y="-10" font-family="Helvetica,sans-Serif" font-size="20.00" fill="#000000">R² = 0.25*</text>
</g>
<!-- b&#45;&gt;e -->
<g id="edge5" class="edge">
<title>b&#45;&gt;e</title>
<path fill="none" stroke="#ff0000" stroke-width="2" stroke-dasharray="5,2" d="M76.6221,-419.8599C71.2338,-402.7784 65.0875,-380.4043 62.355,-360 49.6175,-264.886 67.9712,-153.1951 81.3998,-90.0936"/>
<polygon fill="#ff0000" stroke="#ff0000" stroke-width="2" points="84.8859,-90.5334 83.5905,-80.018 78.0457,-89.0461 84.8859,-90.5334"/>
<text text-anchor="middle" x="77.855" y="-244" font-family="Times,serif" font-size="20.00" fill="#000000">0.51</text>
</g>
<!-- d -->
<g id="node4" class="node">
<title>d</title>
<polygon fill="none" stroke="#000000" stroke-width="3" points="322.8776,-220 121.8324,-220 121.8324,-140 322.8776,-140 322.8776,-220"/>
<text text-anchor="middle" x="222.355" y="-198" font-family="Helvetica,sans-Serif" font-size="20.00" fill="#000000">Floral Color Diversity</text>
<text text-anchor="middle" x="222.355" y="-174" font-family="Helvetica,sans-Serif" font-size="20.00" fill="#000000"> (Color Trait Spaces)</text>
<text text-anchor="middle" x="222.355" y="-150" font-family="Helvetica,sans-Serif" font-size="20.00" fill="#000000">R² = 0.37</text>
</g>
<!-- c&#45;&gt;d -->
<g id="edge4" class="edge">
<title>c&#45;&gt;d</title>
<path fill="none" stroke="#000000" stroke-width="2" d="M212.3668,-279.8816C213.9046,-264.5043 215.6791,-246.7586 217.302,-230.5297"/>
<polygon fill="#000000" stroke="#000000" stroke-width="2" points="220.8301,-230.4229 218.3426,-220.1242 213.8648,-229.7263 220.8301,-230.4229"/>
<text text-anchor="middle" x="233.855" y="-244" font-family="Times,serif" font-size="20.00" fill="#000000">0.61</text>
</g>
<!-- c&#45;&gt;e -->
<g id="edge6" class="edge">
<title>c&#45;&gt;e</title>
<path fill="none" stroke="transparent" stroke-width="2" d="M157.9187,-279.8668C140.5548,-263.2571 122.8535,-242.588 112.355,-220 93.4086,-179.2361 89.7037,-127.8246 90.1226,-90.3935"/>
<polygon fill="transparent" stroke="transparent" stroke-width="2" points="93.6253,-90.3 90.3409,-80.2272 86.6269,-90.1497 93.6253,-90.3"/>
</g>
<!-- d&#45;&gt;e -->
<g id="edge7" class="edge">
<title>d&#45;&gt;e</title>
<path fill="none" stroke="#ff0000" stroke-width="2" stroke-dasharray="5,2" d="M185.3888,-139.8816C170.41,-123.6256 152.9924,-104.7228 137.3654,-87.7632"/>
<polygon fill="#ff0000" stroke="#ff0000" stroke-width="2" points="139.6768,-85.1066 130.3266,-80.1242 134.529,-89.85 139.6768,-85.1066"/>
<text text-anchor="middle" x="187.184" y="-104" font-family="Times,serif" font-size="20.00" fill="#000000">&#45;0.49</text>
</g>
</g>
</svg>

