<?xml version="1.0" encoding="UTF-8" standalone="no"?>
<!DOCTYPE svg PUBLIC "-//W3C//DTD SVG 1.1//EN"
 "http://www.w3.org/Graphics/SVG/1.1/DTD/svg11.dtd">
<!-- Generated by graphviz version 2.40.1 (20161225.0304)
 -->
<!-- Title: a_nice_graph Pages: 1 -->
<svg width="353pt" height="600pt"
 viewBox="0.00 0.00 353.25 600.00" xmlns="http://www.w3.org/2000/svg" xmlns:xlink="http://www.w3.org/1999/xlink">
<g id="graph0" class="graph" transform="scale(1 1) rotate(0) translate(4 596)">
<title>a_nice_graph</title>
<polygon fill="#ffffff" stroke="transparent" points="-4,4 -4,-596 349.25,-596 349.25,4 -4,4"/>
<text text-anchor="middle" x="18.0035" y="-561" font-family="Times,serif" font-size="30.00" fill="#000000">B</text>
<!-- a -->
<g id="node1" class="node">
<title>a</title>
<polygon fill="none" stroke="#000000" stroke-width="3" points="196.5993,-548 98.1107,-548 98.1107,-512 196.5993,-512 196.5993,-548"/>
<text text-anchor="middle" x="147.355" y="-524" font-family="Helvetica,sans-Serif" font-size="20.00" fill="#000000">Elevation</text>
</g>
<!-- b -->
<g id="node2" class="node">
<title>b</title>
<polygon fill="none" stroke="#000000" stroke-width="3" points="172.5652,-452 .1448,-452 .1448,-396 172.5652,-396 172.5652,-452"/>
<text text-anchor="middle" x="86.355" y="-430" font-family="Helvetica,sans-Serif" font-size="20.00" fill="#000000">Floral Abundance</text>
<text text-anchor="middle" x="86.355" y="-406" font-family="Helvetica,sans-Serif" font-size="20.00" fill="#000000">R² = 0.19</text>
</g>
<!-- a&#45;&gt;b -->
<g id="edge1" class="edge">
<title>a&#45;&gt;b</title>
<path fill="none" stroke="#ff0000" stroke-width="2" d="M136.7296,-511.5362C128.7069,-497.5951 117.4347,-478.0074 107.5869,-460.8948"/>
<polygon fill="#ff0000" stroke="#ff0000" stroke-width="2" points="110.6131,-459.1362 102.5917,-452.2146 104.546,-462.6277 110.6131,-459.1362"/>
<text text-anchor="middle" x="147.184" y="-476" font-family="Times,serif" font-size="20.00" fill="#000000">&#45;0.44</text>
</g>
<!-- c -->
<g id="node3" class="node">
<title>c</title>
<polygon fill="none" stroke="#000000" stroke-width="3" points="345.1451,-336 71.5649,-336 71.5649,-256 345.1451,-256 345.1451,-336"/>
<text text-anchor="middle" x="208.355" y="-314" font-family="Helvetica,sans-Serif" font-size="20.00" fill="#000000">Floral Phylogenetic Diversity,</text>
<text text-anchor="middle" x="208.355" y="-290" font-family="Helvetica,sans-Serif" font-size="20.00" fill="#000000"> (Faithʹs PD)</text>
<text text-anchor="middle" x="208.355" y="-266" font-family="Helvetica,sans-Serif" font-size="20.00" fill="#000000">R² = 0.20</text>
</g>
<!-- a&#45;&gt;c -->
<g id="edge2" class="edge">
<title>a&#45;&gt;c</title>
<path fill="none" stroke="#ff0000" stroke-width="2" d="M162.0827,-511.7748C165.9054,-506.3175 169.6918,-500.1437 172.355,-494 192.9798,-446.4215 201.7901,-387.4574 205.5527,-346.3027"/>
<polygon fill="#ff0000" stroke="#ff0000" stroke-width="2" points="209.0483,-346.5008 206.4046,-336.2411 202.0733,-345.9102 209.0483,-346.5008"/>
<text text-anchor="middle" x="220.184" y="-418" font-family="Times,serif" font-size="20.00" fill="#000000">&#45;0.45</text>
</g>
<!-- b&#45;&gt;c -->
<g id="edge4" class="edge">
<title>b&#45;&gt;c</title>
<path fill="none" stroke="#000000" stroke-width="2" d="M120.028,-388.671C133.2394,-374.8098 148.6065,-358.6869 162.7837,-343.8126"/>
<polygon fill="#000000" stroke="#000000" stroke-width="2" points="117.4943,-386.2563 113.1284,-395.9099 122.5614,-391.0859 117.4943,-386.2563"/>
<polygon fill="#000000" stroke="#000000" stroke-width="2" points="165.7053,-345.8201 170.0712,-336.1666 160.6382,-340.9905 165.7053,-345.8201"/>
<text text-anchor="middle" x="168.855" y="-360" font-family="Times,serif" font-size="20.00" fill="#000000">0.54</text>
</g>
<!-- e -->
<g id="node5" class="node">
<title>e</title>
<polygon fill="none" stroke="#000000" stroke-width="3" points="158.1934,-56 28.5166,-56 28.5166,0 158.1934,0 158.1934,-56"/>
<text text-anchor="middle" x="93.355" y="-34" font-family="Helvetica,sans-Serif" font-size="20.00" fill="#000000">Modularity Q</text>
<text text-anchor="middle" x="93.355" y="-10" font-family="Helvetica,sans-Serif" font-size="20.00" fill="#000000">R² = 0.19*</text>
</g>
<!-- b&#45;&gt;e -->
<g id="edge3" class="edge">
<title>b&#45;&gt;e</title>
<path fill="none" stroke="#000000" stroke-width="2" stroke-dasharray="5,2" d="M76.6221,-395.8599C71.2338,-378.7784 65.0875,-356.4043 62.355,-336 49.3673,-239.0179 70.5336,-124.194 83.8423,-65.9613"/>
<polygon fill="#000000" stroke="#000000" stroke-width="2" points="87.2792,-66.6343 86.1454,-56.1003 80.4627,-65.0422 87.2792,-66.6343"/>
<text text-anchor="middle" x="78.855" y="-220" font-family="Times,serif" font-size="20.00" fill="#000000">0.44</text>
</g>
<!-- d -->
<g id="node4" class="node">
<title>d</title>
<polygon fill="none" stroke="#000000" stroke-width="3" points="322.8776,-196 121.8324,-196 121.8324,-116 322.8776,-116 322.8776,-196"/>
<text text-anchor="middle" x="222.355" y="-174" font-family="Helvetica,sans-Serif" font-size="20.00" fill="#000000">Floral Color Diversity</text>
<text text-anchor="middle" x="222.355" y="-150" font-family="Helvetica,sans-Serif" font-size="20.00" fill="#000000"> (Color Trait Spaces)</text>
<text text-anchor="middle" x="222.355" y="-126" font-family="Helvetica,sans-Serif" font-size="20.00" fill="#000000"> R² = 0.37</text>
</g>
<!-- c&#45;&gt;d -->
<g id="edge5" class="edge">
<title>c&#45;&gt;d</title>
<path fill="none" stroke="#000000" stroke-width="2" d="M212.3668,-255.8816C213.9046,-240.5043 215.6791,-222.7586 217.302,-206.5297"/>
<polygon fill="#000000" stroke="#000000" stroke-width="2" points="220.8301,-206.4229 218.3426,-196.1242 213.8648,-205.7263 220.8301,-206.4229"/>
<text text-anchor="middle" x="233.855" y="-220" font-family="Times,serif" font-size="20.00" fill="#000000">0.61</text>
</g>
<!-- c&#45;&gt;e -->
<g id="edge6" class="edge">
<title>c&#45;&gt;e</title>
<path fill="none" stroke="transparent" stroke-width="2" d="M158.0082,-255.825C140.655,-239.2103 122.9376,-218.5488 112.355,-196 93.0293,-154.8221 90.1387,-101.9353 90.8671,-66.6049"/>
<polygon fill="transparent" stroke="transparent" stroke-width="2" points="94.377,-66.3421 91.1951,-56.2364 87.3805,-66.1207 94.377,-66.3421"/>
</g>
<!-- d&#45;&gt;e -->
<g id="edge7" class="edge">
<title>d&#45;&gt;e</title>
<path fill="none" stroke="#000000" stroke-width="2" stroke-dasharray="5,2" d="M181.8925,-115.8512C164.9764,-99.0662 145.4862,-79.7271 129.1061,-63.4739"/>
<polygon fill="#000000" stroke="#000000" stroke-width="2" points="131.3831,-60.8027 121.8193,-56.2436 126.4526,-65.7717 131.3831,-60.8027"/>
<text text-anchor="middle" x="179.855" y="-80" font-family="Times,serif" font-size="20.00" fill="#000000">0.44</text>
</g>
</g>
</svg>

