<?xml version="1.0" encoding="UTF-8" standalone="no"?>
<!DOCTYPE svg PUBLIC "-//W3C//DTD SVG 1.1//EN"
 "http://www.w3.org/Graphics/SVG/1.1/DTD/svg11.dtd">
<!-- Generated by graphviz version 2.40.1 (20161225.0304)
 -->
<!-- Title: a_nice_graph Pages: 1 -->
<svg width="493pt" height="600pt"
 viewBox="0.00 0.00 493.23 600.00" xmlns="http://www.w3.org/2000/svg" xmlns:xlink="http://www.w3.org/1999/xlink">
<g id="graph0" class="graph" transform="scale(1 1) rotate(0) translate(4 596)">
<title>a_nice_graph</title>
<polygon fill="#ffffff" stroke="transparent" points="-4,4 -4,-596 489.229,-596 489.229,4 -4,4"/>
<text text-anchor="middle" x="17.1635" y="-561" font-family="Times,serif" font-size="30.00" fill="#000000">E</text>
<!-- a -->
<g id="node1" class="node">
<title>a</title>
<polygon fill="none" stroke="#000000" stroke-width="2" points="264.7812,-548 92.3608,-548 92.3608,-512 264.7812,-512 264.7812,-548"/>
<text text-anchor="middle" x="178.571" y="-524" font-family="Helvetica,sans-Serif" font-size="20.00" fill="#000000">Floral Abundance</text>
</g>
<!-- b -->
<g id="node2" class="node">
<title>b</title>
<polygon fill="none" stroke="#000000" stroke-width="2" points="438.633,-452 232.509,-452 232.509,-396 438.633,-396 438.633,-452"/>
<text text-anchor="middle" x="335.571" y="-430" font-family="Helvetica,sans-Serif" font-size="20.00" fill="#000000">Pollinator Abundance</text>
<text text-anchor="middle" x="335.571" y="-406" font-family="Helvetica,sans-Serif" font-size="20.00" fill="#000000">R² = &#160;0.27</text>
</g>
<!-- a&#45;&gt;b -->
<g id="edge1" class="edge">
<title>a&#45;&gt;b</title>
<path fill="none" stroke="#000000" stroke-width="2" d="M205.5603,-511.778C227.4741,-496.9826 258.9764,-475.7135 285.4828,-457.8175"/>
<polygon fill="#000000" stroke="#000000" stroke-width="2" points="287.5654,-460.6345 293.8948,-452.1381 283.6484,-454.833 287.5654,-460.6345"/>
<text text-anchor="middle" x="283.071" y="-476" font-family="Times,serif" font-size="20.00" fill="#000000">0.52</text>
</g>
<!-- c -->
<g id="node3" class="node">
<title>c</title>
<polygon fill="none" stroke="#000000" stroke-width="2" points="307.213,-336 -.071,-336 -.071,-256 307.213,-256 307.213,-336"/>
<text text-anchor="middle" x="153.571" y="-314" font-family="Helvetica,sans-Serif" font-size="20.00" fill="#000000">Pollinator Phylogenetic Diversity,</text>
<text text-anchor="middle" x="153.571" y="-290" font-family="Helvetica,sans-Serif" font-size="20.00" fill="#000000"> (Faithʹs PD)</text>
<text text-anchor="middle" x="153.571" y="-266" font-family="Helvetica,sans-Serif" font-size="20.00" fill="#000000">R² = 0.62</text>
</g>
<!-- a&#45;&gt;c -->
<g id="edge2" class="edge">
<title>a&#45;&gt;c</title>
<path fill="none" stroke="#000000" stroke-width="2" d="M176.6093,-511.6384C172.8431,-476.387 164.4823,-398.1294 158.9371,-346.2264"/>
<polygon fill="#000000" stroke="#000000" stroke-width="2" points="162.4104,-345.7893 157.8678,-336.2177 155.45,-346.533 162.4104,-345.7893"/>
<text text-anchor="middle" x="188.071" y="-418" font-family="Times,serif" font-size="20.00" fill="#000000">0.79</text>
</g>
<!-- b&#45;&gt;c -->
<g id="edge4" class="edge">
<title>b&#45;&gt;c</title>
<path fill="none" stroke="#000000" stroke-width="2" d="M287.2042,-389.9838C266.2589,-375.253 241.4203,-357.7842 218.8742,-341.9275"/>
<polygon fill="#000000" stroke="#000000" stroke-width="2" points="285.4372,-393.02 295.6303,-395.9099 289.4641,-387.2942 285.4372,-393.02"/>
<polygon fill="#000000" stroke="#000000" stroke-width="2" points="220.876,-339.0565 210.6829,-336.1666 216.8491,-344.7822 220.876,-339.0565"/>
<text text-anchor="middle" x="283.071" y="-360" font-family="Times,serif" font-size="20.00" fill="#000000">0.46</text>
</g>
<!-- d -->
<g id="node4" class="node">
<title>d</title>
<polygon fill="none" stroke="#000000" stroke-width="2" points="419.4172,-196 139.7248,-196 139.7248,-116 419.4172,-116 419.4172,-196"/>
<text text-anchor="middle" x="279.571" y="-174" font-family="Helvetica,sans-Serif" font-size="20.00" fill="#000000">Pollinator Functional Diversity</text>
<text text-anchor="middle" x="279.571" y="-150" font-family="Helvetica,sans-Serif" font-size="20.00" fill="#000000"> (Trait Spaces)</text>
<text text-anchor="middle" x="279.571" y="-126" font-family="Helvetica,sans-Serif" font-size="20.00" fill="#000000">R² = 0.49</text>
</g>
<!-- b&#45;&gt;d -->
<g id="edge5" class="edge">
<title>b&#45;&gt;d</title>
<path fill="none" stroke="#000000" stroke-width="2" d="M333.8908,-385.9241C331.7572,-351.576 327.0036,-299.8648 316.571,-256 312.5983,-239.2966 306.6475,-221.5702 300.6734,-205.7546"/>
<polygon fill="#000000" stroke="#000000" stroke-width="2" points="330.4017,-386.2168 334.4722,-395.9985 337.3901,-385.8134 330.4017,-386.2168"/>
<polygon fill="#000000" stroke="#000000" stroke-width="2" points="303.8414,-204.2431 296.9681,-196.1803 297.3132,-206.7695 303.8414,-204.2431"/>
<text text-anchor="middle" x="346.071" y="-290" font-family="Times,serif" font-size="20.00" fill="#000000">0.50</text>
</g>
<!-- e -->
<g id="node5" class="node">
<title>e</title>
<polygon fill="none" stroke="#000000" stroke-width="2" points="344.4094,-56 214.7326,-56 214.7326,0 344.4094,0 344.4094,-56"/>
<text text-anchor="middle" x="279.571" y="-34" font-family="Helvetica,sans-Serif" font-size="20.00" fill="#000000">Modularity Q</text>
<text text-anchor="middle" x="279.571" y="-10" font-family="Helvetica,sans-Serif" font-size="20.00" fill="#000000">R² = 0.67</text>
</g>
<!-- b&#45;&gt;e -->
<g id="edge3" class="edge">
<title>b&#45;&gt;e</title>
<path fill="none" stroke="#ff0000" stroke-width="2" d="M358.0925,-395.984C400.3422,-339.7872 482.5644,-210.5959 428.571,-116 412.1763,-87.2767 382.3288,-66.9838 353.6301,-53.1823"/>
<polygon fill="#ff0000" stroke="#ff0000" stroke-width="2" points="354.9192,-49.9229 344.3712,-48.9269 351.9959,-56.2833 354.9192,-49.9229"/>
<text text-anchor="middle" x="464.4" y="-220" font-family="Times,serif" font-size="20.00" fill="#000000">&#45;0.31</text>
</g>
<!-- c&#45;&gt;d -->
<g id="edge6" class="edge">
<title>c&#45;&gt;d</title>
<path fill="none" stroke="#000000" stroke-width="2" d="M189.6775,-255.8816C204.3079,-239.6256 221.3205,-220.7228 236.5841,-203.7632"/>
<polygon fill="#000000" stroke="#000000" stroke-width="2" points="239.371,-205.8986 243.4592,-196.1242 234.168,-201.2158 239.371,-205.8986"/>
<text text-anchor="middle" x="242.071" y="-220" font-family="Times,serif" font-size="20.00" fill="#000000">0.70</text>
</g>
<!-- c&#45;&gt;e -->
<g id="edge7" class="edge">
<title>c&#45;&gt;e</title>
<path fill="none" stroke="transparent" stroke-width="2" d="M135.0519,-255.7016C120.3488,-217.2941 105.9742,-159.0933 130.571,-116 146.9657,-87.2767 176.8132,-66.9838 205.5119,-53.1823"/>
<polygon fill="transparent" stroke="transparent" stroke-width="2" points="207.1461,-56.2833 214.7708,-48.9269 204.2228,-49.9229 207.1461,-56.2833"/>
</g>
<!-- d&#45;&gt;e -->
<g id="edge8" class="edge">
<title>d&#45;&gt;e</title>
<path fill="none" stroke="#000000" stroke-width="2" d="M279.571,-115.8512C279.571,-100.1247 279.571,-82.1561 279.571,-66.5842"/>
<polygon fill="#000000" stroke="#000000" stroke-width="2" points="283.0711,-66.2436 279.571,-56.2436 276.0711,-66.2437 283.0711,-66.2436"/>
<text text-anchor="middle" x="297.071" y="-80" font-family="Times,serif" font-size="20.00" fill="#000000">0.83</text>
</g>
</g>
</svg>

