<?xml version="1.0" encoding="UTF-8" standalone="no"?>
<!DOCTYPE svg PUBLIC "-//W3C//DTD SVG 1.1//EN"
 "http://www.w3.org/Graphics/SVG/1.1/DTD/svg11.dtd">
<!-- Generated by graphviz version 2.40.1 (20161225.0304)
 -->
<!-- Title: a_nice_graph Pages: 1 -->
<svg width="499pt" height="601pt"
 viewBox="0.00 0.00 498.57 601.00" xmlns="http://www.w3.org/2000/svg" xmlns:xlink="http://www.w3.org/1999/xlink">
<g id="graph0" class="graph" transform="scale(1 1) rotate(0) translate(4 597)">
<title>a_nice_graph</title>
<polygon fill="#ffffff" stroke="transparent" points="-4,4 -4,-597 494.571,-597 494.571,4 -4,4"/>
<text text-anchor="middle" x="16.3385" y="-562" font-family="Times,serif" font-size="30.00" fill="#000000">F</text>
<!-- a -->
<g id="node1" class="node">
<title>a</title>
<polygon fill="none" stroke="#000000" stroke-width="2" points="264.7812,-549 92.3608,-549 92.3608,-513 264.7812,-513 264.7812,-549"/>
<text text-anchor="middle" x="178.571" y="-525" font-family="Helvetica,sans-Serif" font-size="20.00" fill="#000000">Floral Abundance</text>
</g>
<!-- b -->
<g id="node2" class="node">
<title>b</title>
<polygon fill="none" stroke="#000000" stroke-width="2" points="438.633,-453 232.509,-453 232.509,-397 438.633,-397 438.633,-453"/>
<text text-anchor="middle" x="335.571" y="-431" font-family="Helvetica,sans-Serif" font-size="20.00" fill="#000000">Pollinator Abundance</text>
<text text-anchor="middle" x="335.571" y="-407" font-family="Helvetica,sans-Serif" font-size="20.00" fill="#000000">R² = 0.27</text>
</g>
<!-- a&#45;&gt;b -->
<g id="edge1" class="edge">
<title>a&#45;&gt;b</title>
<path fill="none" stroke="#000000" stroke-width="2" d="M205.5603,-512.778C227.4741,-497.9826 258.9764,-476.7135 285.4828,-458.8175"/>
<polygon fill="#000000" stroke="#000000" stroke-width="2" points="287.5654,-461.6345 293.8948,-453.1381 283.6484,-455.833 287.5654,-461.6345"/>
<text text-anchor="middle" x="283.071" y="-477" font-family="Times,serif" font-size="20.00" fill="#000000">0.52</text>
</g>
<!-- c -->
<g id="node3" class="node">
<title>c</title>
<polygon fill="none" stroke="#000000" stroke-width="2" points="307.213,-337 -.071,-337 -.071,-257 307.213,-257 307.213,-337"/>
<text text-anchor="middle" x="153.571" y="-315" font-family="Helvetica,sans-Serif" font-size="20.00" fill="#000000">Pollinator Phylogenetic Diversity,</text>
<text text-anchor="middle" x="153.571" y="-291" font-family="Helvetica,sans-Serif" font-size="20.00" fill="#000000"> (Faithʹs PD)</text>
<text text-anchor="middle" x="153.571" y="-267" font-family="Helvetica,sans-Serif" font-size="20.00" fill="#000000">R² = 0.62</text>
</g>
<!-- a&#45;&gt;c -->
<g id="edge2" class="edge">
<title>a&#45;&gt;c</title>
<path fill="none" stroke="#000000" stroke-width="2" d="M176.6093,-512.6384C172.8431,-477.387 164.4823,-399.1294 158.9371,-347.2264"/>
<polygon fill="#000000" stroke="#000000" stroke-width="2" points="162.4104,-346.7893 157.8678,-337.2177 155.45,-347.533 162.4104,-346.7893"/>
<text text-anchor="middle" x="188.071" y="-419" font-family="Times,serif" font-size="20.00" fill="#000000">0.79</text>
</g>
<!-- b&#45;&gt;c -->
<g id="edge4" class="edge">
<title>b&#45;&gt;c</title>
<path fill="none" stroke="#000000" stroke-width="2" d="M287.2042,-390.9838C266.2589,-376.253 241.4203,-358.7842 218.8742,-342.9275"/>
<polygon fill="#000000" stroke="#000000" stroke-width="2" points="285.4372,-394.02 295.6303,-396.9099 289.4641,-388.2942 285.4372,-394.02"/>
<polygon fill="#000000" stroke="#000000" stroke-width="2" points="220.876,-340.0565 210.6829,-337.1666 216.8491,-345.7822 220.876,-340.0565"/>
<text text-anchor="middle" x="283.071" y="-361" font-family="Times,serif" font-size="20.00" fill="#000000">0.46</text>
</g>
<!-- d -->
<g id="node4" class="node">
<title>d</title>
<polygon fill="none" stroke="#000000" stroke-width="2" points="431.4172,-197 151.7248,-197 151.7248,-117 431.4172,-117 431.4172,-197"/>
<text text-anchor="middle" x="291.571" y="-175" font-family="Helvetica,sans-Serif" font-size="20.00" fill="#000000">Pollinator Functional Diversity</text>
<text text-anchor="middle" x="291.571" y="-151" font-family="Helvetica,sans-Serif" font-size="20.00" fill="#000000"> (Trait Spaces)</text>
<text text-anchor="middle" x="291.571" y="-127" font-family="Helvetica,sans-Serif" font-size="20.00" fill="#000000">R² = 0.49</text>
</g>
<!-- b&#45;&gt;d -->
<g id="edge5" class="edge">
<title>b&#45;&gt;d</title>
<path fill="none" stroke="#000000" stroke-width="2" d="M332.7065,-386.8634C329.7954,-352.6754 324.5662,-301.2387 316.571,-257 313.6208,-240.6762 309.5294,-223.0628 305.5099,-207.234"/>
<polygon fill="#000000" stroke="#000000" stroke-width="2" points="329.2236,-387.2152 333.5361,-396.8926 336.1998,-386.6381 329.2236,-387.2152"/>
<polygon fill="#000000" stroke="#000000" stroke-width="2" points="308.7865,-205.9249 302.8917,-197.1213 302.0099,-207.6794 308.7865,-205.9249"/>
<text text-anchor="middle" x="345.071" y="-291" font-family="Times,serif" font-size="20.00" fill="#000000">0.50</text>
</g>
<!-- e -->
<g id="node5" class="node">
<title>e</title>
<polygon fill="none" stroke="#000000" stroke-width="2" points="382.1196,-80 201.0224,-80 201.0224,0 382.1196,0 382.1196,-80"/>
<text text-anchor="middle" x="291.571" y="-58" font-family="Helvetica,sans-Serif" font-size="20.00" fill="#000000">Nestedness</text>
<text text-anchor="middle" x="291.571" y="-34" font-family="Helvetica,sans-Serif" font-size="20.00" fill="#000000"> (Weighted NODF)</text>
<text text-anchor="middle" x="291.571" y="-10" font-family="Helvetica,sans-Serif" font-size="20.00" fill="#000000">R² = 0.62</text>
</g>
<!-- b&#45;&gt;e -->
<g id="edge3" class="edge">
<title>b&#45;&gt;e</title>
<path fill="none" stroke="#000000" stroke-width="2" d="M360.3734,-396.8986C406.9508,-340.5483 497.8614,-211.0946 440.571,-117 428.9495,-97.9126 410.9048,-83.3494 391.3326,-72.3131"/>
<polygon fill="#000000" stroke="#000000" stroke-width="2" points="392.7232,-69.0886 382.2501,-67.487 389.4385,-75.2701 392.7232,-69.0886"/>
<text text-anchor="middle" x="473.071" y="-221" font-family="Times,serif" font-size="20.00" fill="#000000">0.46</text>
</g>
<!-- c&#45;&gt;d -->
<g id="edge6" class="edge">
<title>c&#45;&gt;d</title>
<path fill="none" stroke="#000000" stroke-width="2" d="M193.1163,-256.8816C209.2844,-240.4792 228.1088,-221.382 244.9415,-204.3053"/>
<polygon fill="#000000" stroke="#000000" stroke-width="2" points="247.4925,-206.703 252.02,-197.1242 242.5073,-201.789 247.4925,-206.703"/>
<text text-anchor="middle" x="249.071" y="-221" font-family="Times,serif" font-size="20.00" fill="#000000">0.70</text>
</g>
<!-- c&#45;&gt;e -->
<g id="edge7" class="edge">
<title>c&#45;&gt;e</title>
<path fill="none" stroke="#ff0000" stroke-width="2" d="M123.6803,-256.8106C98.9442,-218.2176 72.1427,-159.6474 100.913,-117 121.5337,-86.4332 156.5519,-67.9972 190.9927,-56.8792"/>
<polygon fill="#ff0000" stroke="#ff0000" stroke-width="2" points="192.1301,-60.1917 200.6791,-53.9335 190.0933,-53.4946 192.1301,-60.1917"/>
<text text-anchor="middle" x="122.4" y="-151" font-family="Times,serif" font-size="20.00" fill="#000000">&#45;1.00</text>
</g>
<!-- d&#45;&gt;e -->
<g id="edge8" class="edge">
<title>d&#45;&gt;e</title>
<path fill="none" stroke="transparent" stroke-width="2" d="M291.571,-116.7352C291.571,-108.2784 291.571,-99.2566 291.571,-90.4803"/>
<polygon fill="transparent" stroke="transparent" stroke-width="2" points="295.0711,-90.3389 291.571,-80.339 288.0711,-90.339 295.0711,-90.3389"/>
</g>
</g>
</svg>

