<?xml version="1.0" encoding="UTF-8" standalone="no"?>
<!DOCTYPE svg PUBLIC "-//W3C//DTD SVG 1.1//EN"
 "http://www.w3.org/Graphics/SVG/1.1/DTD/svg11.dtd">
<!-- Generated by graphviz version 2.40.1 (20161225.0304)
 -->
<!-- Title: dot Pages: 1 -->
<svg width="920pt" height="533pt"
 viewBox="0.00 0.00 920.00 533.14" xmlns="http://www.w3.org/2000/svg" xmlns:xlink="http://www.w3.org/1999/xlink">
<g id="graph0" class="graph" transform="scale(1 1) rotate(0) translate(4 529.1371)">
<title>dot</title>
<polygon fill="#ffffff" stroke="transparent" points="-4,4 -4,-529.1371 916,-529.1371 916,4 -4,4"/>
<text text-anchor="middle" x="18.8285" y="-494.1371" font-family="Times,serif" font-size="30.00" fill="#000000">A</text>
<g id="clust1" class="cluster">
<title>cluster_0</title>
<polygon fill="#add8e6" stroke="#add8e6" points="8,-8 8,-137.1371 904,-137.1371 904,-8 8,-8"/>
</g>
<!-- a -->
<g id="node1" class="node">
<title>a</title>
<polygon fill="none" stroke="#000000" stroke-width="3" points="362.2443,-481.1371 263.7557,-481.1371 263.7557,-445.1371 362.2443,-445.1371 362.2443,-481.1371"/>
<text text-anchor="middle" x="313" y="-457.1371" font-family="Helvetica,sans-Serif" font-size="20.00" fill="#000000">Elevation</text>
</g>
<!-- b -->
<g id="node2" class="node">
<title>b</title>
<polygon fill="none" stroke="#000000" stroke-width="3" points="529.2102,-385.1371 356.7898,-385.1371 356.7898,-329.1371 529.2102,-329.1371 529.2102,-385.1371"/>
<text text-anchor="middle" x="443" y="-363.1371" font-family="Helvetica,sans-Serif" font-size="20.00" fill="#000000">Floral Abundance</text>
<text text-anchor="middle" x="443" y="-339.1371" font-family="Helvetica,sans-Serif" font-size="20.00" fill="#000000">R² = 0.19</text>
</g>
<!-- a&#45;&gt;b -->
<g id="edge1" class="edge">
<title>a&#45;&gt;b</title>
<path fill="none" stroke="#ff0000" stroke-width="2" d="M335.3478,-444.915C353.2573,-430.3119 378.9015,-409.402 400.6685,-391.6535"/>
<polygon fill="#ff0000" stroke="#ff0000" stroke-width="2" points="402.9526,-394.3072 408.491,-385.2752 398.529,-388.882 402.9526,-394.3072"/>
<text text-anchor="middle" x="405.829" y="-409.1371" font-family="Times,serif" font-size="20.00" fill="#ff0000">&#45;0.44</text>
</g>
<!-- c -->
<g id="node3" class="node">
<title>c</title>
<polygon fill="none" stroke="#000000" stroke-width="3" points="433.7901,-269.1371 160.2099,-269.1371 160.2099,-189.1371 433.7901,-189.1371 433.7901,-269.1371"/>
<text text-anchor="middle" x="297" y="-247.1371" font-family="Helvetica,sans-Serif" font-size="20.00" fill="#000000">Floral Phylogenetic Diversity,</text>
<text text-anchor="middle" x="297" y="-223.1371" font-family="Helvetica,sans-Serif" font-size="20.00" fill="#000000"> (Faithʹs PD)</text>
<text text-anchor="middle" x="297" y="-199.1371" font-family="Helvetica,sans-Serif" font-size="20.00" fill="#000000">R² = 0.20</text>
</g>
<!-- a&#45;&gt;c -->
<g id="edge2" class="edge">
<title>a&#45;&gt;c</title>
<path fill="none" stroke="#ff0000" stroke-width="2" d="M311.3087,-444.8657C309.8776,-429.065 307.8282,-405.6055 306.342,-385.1371 303.7735,-349.7627 301.3922,-309.8384 299.6767,-279.2347"/>
<polygon fill="#ff0000" stroke="#ff0000" stroke-width="2" points="303.1704,-279.0238 299.1211,-269.2334 296.1812,-279.4121 303.1704,-279.0238"/>
<text text-anchor="middle" x="326.829" y="-351.1371" font-family="Times,serif" font-size="20.00" fill="#ff0000">&#45;0.45</text>
</g>
<!-- b&#45;&gt;c -->
<g id="edge3" class="edge">
<title>b&#45;&gt;c</title>
<path fill="none" stroke="#000000" stroke-width="2" d="M403.2038,-322.2472C387.0148,-308.0542 368.0573,-291.4339 350.675,-276.1947"/>
<polygon fill="#000000" stroke="#000000" stroke-width="2" points="401.1329,-325.0864 410.9597,-329.0469 405.7476,-319.8228 401.1329,-325.0864"/>
<polygon fill="#000000" stroke="#000000" stroke-width="2" points="352.6418,-273.2643 342.8151,-269.3037 348.0271,-278.5279 352.6418,-273.2643"/>
<text text-anchor="middle" x="404.5" y="-293.1371" font-family="Times,serif" font-size="20.00" fill="#000000">0.54</text>
</g>
<!-- e -->
<g id="node5" class="node">
<title>e</title>
<ellipse fill="none" stroke="#000000" stroke-width="3" cx="419" cy="-72.5685" rx="202.0078" ry="56.6372"/>
<text text-anchor="middle" x="419" y="-90.5685" font-family="Helvetica,sans-Serif" font-size="20.00" fill="#000000">Complementary Specialization</text>
<text text-anchor="middle" x="419" y="-66.5685" font-family="Helvetica,sans-Serif" font-size="20.00" fill="#000000"> (H₂ʹ)</text>
<text text-anchor="middle" x="419" y="-42.5685" font-family="Helvetica,sans-Serif" font-size="20.00" fill="#000000">R² = 0.13</text>
</g>
<!-- b&#45;&gt;e -->
<g id="edge7" class="edge">
<title>b&#45;&gt;e</title>
<path fill="none" stroke="#c0c0c0" stroke-width="5" d="M444.7309,-329.1069C446.3955,-295.683 447.9957,-238.1749 443,-189.1371 441.3352,-172.7953 438.3898,-155.3615 435.1198,-139.0899"/>
<polygon fill="#c0c0c0" stroke="#c0c0c0" stroke-width="5" points="439.3681,-138.0299 433.0504,-129.1289 430.801,-139.8098 439.3681,-138.0299"/>
<text text-anchor="middle" x="463.5" y="-223.1371" font-family="Times,serif" font-size="20.00" fill="#c0c0c0">0.35</text>
</g>
<!-- f -->
<g id="node6" class="node">
<title>f</title>
<ellipse fill="none" stroke="#000000" stroke-width="3" cx="107" cy="-72.5685" rx="91.4116" ry="39.6962"/>
<text text-anchor="middle" x="107" y="-78.5685" font-family="Helvetica,sans-Serif" font-size="20.00" fill="#000000">Modularity Q</text>
<text text-anchor="middle" x="107" y="-54.5685" font-family="Helvetica,sans-Serif" font-size="20.00" fill="#000000">R² = 0.19*</text>
</g>
<!-- b&#45;&gt;f -->
<g id="edge8" class="edge">
<title>b&#45;&gt;f</title>
<path fill="none" stroke="#000000" stroke-width="5" stroke-dasharray="5,2" d="M356.3295,-330.3616C354.8763,-329.9477 353.4323,-329.5392 352,-329.1371 247.8037,-299.881 184.3703,-353.0316 116,-269.1371 82.7635,-228.3539 86.2586,-165.5019 94.3197,-121.8925"/>
<polygon fill="#000000" stroke="#000000" stroke-width="5" points="98.6132,-122.7325 96.2713,-112.0715 90.031,-121.027 98.6132,-122.7325"/>
<text text-anchor="middle" x="133.5" y="-223.1371" font-family="Times,serif" font-size="20.00" fill="#000000">0.44</text>
</g>
<!-- g -->
<g id="node7" class="node">
<title>g</title>
<ellipse fill="none" stroke="#000000" stroke-width="3" cx="768" cy="-72.5685" rx="128.2478" ry="56.6372"/>
<text text-anchor="middle" x="768" y="-90.5685" font-family="Helvetica,sans-Serif" font-size="20.00" fill="#000000">Nestedness</text>
<text text-anchor="middle" x="768" y="-66.5685" font-family="Helvetica,sans-Serif" font-size="20.00" fill="#000000"> (Weighted NODF)</text>
<text text-anchor="middle" x="768" y="-42.5685" font-family="Helvetica,sans-Serif" font-size="20.00" fill="#000000">R² = 0.25*</text>
</g>
<!-- b&#45;&gt;g -->
<g id="edge11" class="edge">
<title>b&#45;&gt;g</title>
<path fill="none" stroke="#ff0000" stroke-width="5" stroke-dasharray="5,2" d="M529.3971,-341.3853C604.9584,-325.8227 706.7679,-299.9241 734,-269.1371 764.9491,-234.1478 772.724,-181.4622 773.1531,-139.4404"/>
<polygon fill="#ff0000" stroke="#ff0000" stroke-width="5" points="777.5276,-139.2643 773.1183,-129.2793 768.7777,-139.2943 777.5276,-139.2643"/>
<text text-anchor="middle" x="785.5" y="-223.1371" font-family="Times,serif" font-size="20.00" fill="#ff0000">0.51</text>
</g>
<!-- d -->
<g id="node4" class="node">
<title>d</title>
<polygon fill="none" stroke="#000000" stroke-width="3" points="724.5226,-269.1371 523.4774,-269.1371 523.4774,-189.1371 724.5226,-189.1371 724.5226,-269.1371"/>
<text text-anchor="middle" x="624" y="-247.1371" font-family="Helvetica,sans-Serif" font-size="20.00" fill="#000000">Floral Color Diversity</text>
<text text-anchor="middle" x="624" y="-223.1371" font-family="Helvetica,sans-Serif" font-size="20.00" fill="#000000"> (Color Trait Spaces)</text>
<text text-anchor="middle" x="624" y="-199.1371" font-family="Helvetica,sans-Serif" font-size="20.00" fill="#000000">R² = 0.37</text>
</g>
<!-- c&#45;&gt;d -->
<g id="edge4" class="edge">
<title>c&#45;&gt;d</title>
<path fill="none" stroke="#000000" stroke-width="2" d="M356.6735,-269.3536C396.7372,-291.4609 450.9645,-312.0221 500,-299.1371 520.1363,-293.8459 540.4439,-284.4602 558.6309,-274.2466"/>
<polygon fill="#000000" stroke="#000000" stroke-width="2" points="560.4791,-277.2208 567.3786,-269.1805 556.971,-271.1633 560.4791,-277.2208"/>
<text text-anchor="middle" x="546.1968" y="-293.5175" font-family="Times,serif" font-size="20.00" fill="#000000">0.61</text>
</g>
<!-- c&#45;&gt;e -->
<g id="edge5" class="edge">
<title>c&#45;&gt;e</title>
<path fill="none" stroke="transparent" stroke-width="2" d="M328.418,-188.8168C340.9078,-172.7881 355.5807,-153.9576 369.437,-136.1752"/>
<polygon fill="transparent" stroke="transparent" stroke-width="2" points="372.3495,-138.1318 375.7352,-128.0924 366.8278,-133.8292 372.3495,-138.1318"/>
</g>
<!-- c&#45;&gt;f -->
<g id="edge9" class="edge">
<title>c&#45;&gt;f</title>
<path fill="none" stroke="transparent" stroke-width="2" d="M248.0703,-188.8168C220.2308,-165.8758 185.4268,-137.1958 157.3547,-114.063"/>
<polygon fill="transparent" stroke="transparent" stroke-width="2" points="159.57,-111.3533 149.6268,-107.6949 155.1183,-116.7555 159.57,-111.3533"/>
</g>
<!-- c&#45;&gt;g -->
<g id="edge12" class="edge">
<title>c&#45;&gt;g</title>
<path fill="none" stroke="transparent" stroke-width="2" d="M433.9315,-192.4686C517.0576,-170.004 610.7635,-144.2374 630,-137.1371 644.2491,-131.8777 659.049,-125.7291 673.4358,-119.3549"/>
<polygon fill="transparent" stroke="transparent" stroke-width="2" points="675.1318,-122.43 682.8203,-115.1406 672.2641,-116.0444 675.1318,-122.43"/>
</g>
<!-- d&#45;&gt;e -->
<g id="edge6" class="edge">
<title>d&#45;&gt;e</title>
<path fill="none" stroke="transparent" stroke-width="2" d="M571.4736,-189.0201C548.78,-171.6879 521.7595,-151.051 496.8132,-131.9983"/>
<polygon fill="transparent" stroke="transparent" stroke-width="2" points="498.8665,-129.1624 488.7948,-125.8742 494.6177,-134.7255 498.8665,-129.1624"/>
</g>
<!-- d&#45;&gt;f -->
<g id="edge10" class="edge">
<title>d&#45;&gt;f</title>
<path fill="none" stroke="#000000" stroke-width="5" stroke-dasharray="5,2" d="M523.3161,-193.0709C518.4969,-191.6744 513.7072,-190.3536 509,-189.1371 377.5591,-155.168 334.5752,-186.2222 208,-137.1371 191.8608,-130.8784 175.5471,-121.8706 160.876,-112.5607"/>
<polygon fill="#000000" stroke="#000000" stroke-width="5" points="163.2079,-108.8584 152.4414,-107.0629 158.4298,-116.1887 163.2079,-108.8584"/>
<text text-anchor="middle" x="318.9825" y="-149.3707" font-family="Times,serif" font-size="20.00" fill="#000000">0.44</text>
</g>
<!-- d&#45;&gt;g -->
<g id="edge13" class="edge">
<title>d&#45;&gt;g</title>
<path fill="none" stroke="#ff0000" stroke-width="5" stroke-dasharray="5,2" d="M661.0836,-188.8168C676.8269,-171.6994 695.5089,-151.3868 712.8175,-132.5675"/>
<polygon fill="#ff0000" stroke="#ff0000" stroke-width="5" points="716.0782,-135.485 719.6276,-125.163 709.6379,-129.5617 716.0782,-135.485"/>
<text text-anchor="middle" x="716.829" y="-153.1371" font-family="Times,serif" font-size="20.00" fill="#ff0000">&#45;0.49</text>
</g>
</g>
</svg>

