<?xml version="1.0" encoding="UTF-8" standalone="no"?>
<!DOCTYPE svg PUBLIC "-//W3C//DTD SVG 1.1//EN"
 "http://www.w3.org/Graphics/SVG/1.1/DTD/svg11.dtd">
<!-- Generated by graphviz version 2.40.1 (20161225.0304)
 -->
<!-- Title: dot Pages: 1 -->
<svg width="920pt" height="533pt"
 viewBox="0.00 0.00 920.00 533.14" xmlns="http://www.w3.org/2000/svg" xmlns:xlink="http://www.w3.org/1999/xlink">
<g id="graph0" class="graph" transform="scale(1 1) rotate(0) translate(4 529.1371)">
<title>dot</title>
<polygon fill="#ffffff" stroke="transparent" points="-4,4 -4,-529.1371 916,-529.1371 916,4 -4,4"/>
<text text-anchor="middle" x="18.0035" y="-494.1371" font-family="Times,serif" font-size="30.00" fill="#000000">B</text>
<g id="clust1" class="cluster">
<title>cluster_0</title>
<polygon fill="#add8e6" stroke="#add8e6" points="8,-8 8,-137.1371 904,-137.1371 904,-8 8,-8"/>
</g>
<!-- a -->
<g id="node1" class="node">
<title>a</title>
<polygon fill="none" stroke="#000000" stroke-width="3" points="426.2102,-481.1371 253.7898,-481.1371 253.7898,-445.1371 426.2102,-445.1371 426.2102,-481.1371"/>
<text text-anchor="middle" x="340" y="-457.1371" font-family="Helvetica,sans-Serif" font-size="20.00" fill="#000000">Floral Abundance</text>
</g>
<!-- b -->
<g id="node2" class="node">
<title>b</title>
<polygon fill="none" stroke="#000000" stroke-width="3" points="590.062,-385.1371 383.938,-385.1371 383.938,-329.1371 590.062,-329.1371 590.062,-385.1371"/>
<text text-anchor="middle" x="487" y="-363.1371" font-family="Helvetica,sans-Serif" font-size="20.00" fill="#000000">Pollinator Abundance</text>
<text text-anchor="middle" x="487" y="-339.1371" font-family="Helvetica,sans-Serif" font-size="20.00" fill="#000000">R² = 0.27</text>
</g>
<!-- a&#45;&gt;b -->
<g id="edge1" class="edge">
<title>a&#45;&gt;b</title>
<path fill="none" stroke="#000000" stroke-width="2" d="M365.2702,-444.915C385.6994,-430.1838 415.0288,-409.0347 439.7796,-391.1872"/>
<polygon fill="#000000" stroke="#000000" stroke-width="2" points="441.9143,-393.963 447.9783,-385.2752 437.82,-388.2851 441.9143,-393.963"/>
<text text-anchor="middle" x="439.5" y="-409.1371" font-family="Times,serif" font-size="20.00" fill="#000000">0.52</text>
</g>
<!-- c -->
<g id="node3" class="node">
<title>c</title>
<polygon fill="none" stroke="#000000" stroke-width="3" points="464.642,-269.1371 157.358,-269.1371 157.358,-189.1371 464.642,-189.1371 464.642,-269.1371"/>
<text text-anchor="middle" x="311" y="-247.1371" font-family="Helvetica,sans-Serif" font-size="20.00" fill="#000000">Pollinator Phylogenetic Diversity,</text>
<text text-anchor="middle" x="311" y="-223.1371" font-family="Helvetica,sans-Serif" font-size="20.00" fill="#000000"> (Faithʹs PD)</text>
<text text-anchor="middle" x="311" y="-199.1371" font-family="Helvetica,sans-Serif" font-size="20.00" fill="#000000">R² = 0.62</text>
</g>
<!-- a&#45;&gt;c -->
<g id="edge2" class="edge">
<title>a&#45;&gt;c</title>
<path fill="none" stroke="#000000" stroke-width="2" d="M337.7244,-444.7755C333.3556,-409.524 323.6571,-331.2664 317.2246,-279.3635"/>
<polygon fill="#000000" stroke="#000000" stroke-width="2" points="320.6877,-278.8484 315.9842,-269.3548 313.7408,-279.7094 320.6877,-278.8484"/>
<text text-anchor="middle" x="347.5" y="-351.1371" font-family="Times,serif" font-size="20.00" fill="#000000">0.79</text>
</g>
<!-- b&#45;&gt;c -->
<g id="edge3" class="edge">
<title>b&#45;&gt;c</title>
<path fill="none" stroke="#000000" stroke-width="2" d="M440.2278,-323.1209C420.0618,-308.4547 396.1638,-291.0744 374.4374,-275.2733"/>
<polygon fill="#000000" stroke="#000000" stroke-width="2" points="438.2301,-325.9958 448.3761,-329.0469 442.3473,-320.3346 438.2301,-325.9958"/>
<polygon fill="#000000" stroke="#000000" stroke-width="2" points="376.3751,-272.3549 366.2291,-269.3037 372.2579,-278.016 376.3751,-272.3549"/>
<text text-anchor="middle" x="436.5" y="-293.1371" font-family="Times,serif" font-size="20.00" fill="#000000">0.46</text>
</g>
<!-- d -->
<g id="node4" class="node">
<title>d</title>
<polygon fill="none" stroke="#000000" stroke-width="3" points="800.8462,-269.1371 521.1538,-269.1371 521.1538,-189.1371 800.8462,-189.1371 800.8462,-269.1371"/>
<text text-anchor="middle" x="661" y="-247.1371" font-family="Helvetica,sans-Serif" font-size="20.00" fill="#000000">Pollinator Functional Diversity</text>
<text text-anchor="middle" x="661" y="-223.1371" font-family="Helvetica,sans-Serif" font-size="20.00" fill="#000000"> (Trait Spaces)</text>
<text text-anchor="middle" x="661" y="-199.1371" font-family="Helvetica,sans-Serif" font-size="20.00" fill="#000000">R² = 0.49</text>
</g>
<!-- b&#45;&gt;d -->
<g id="edge4" class="edge">
<title>b&#45;&gt;d</title>
<path fill="none" stroke="#000000" stroke-width="2" d="M533.2407,-323.1209C553.1776,-308.4547 576.8039,-291.0744 598.2835,-275.2733"/>
<polygon fill="#000000" stroke="#000000" stroke-width="2" points="531.1663,-320.3019 525.185,-329.0469 535.3143,-325.9406 531.1663,-320.3019"/>
<polygon fill="#000000" stroke="#000000" stroke-width="2" points="600.4173,-278.0487 606.3985,-269.3037 596.2693,-272.4101 600.4173,-278.0487"/>
<text text-anchor="middle" x="596.5" y="-293.1371" font-family="Times,serif" font-size="20.00" fill="#000000">0.50</text>
</g>
<!-- e -->
<g id="node5" class="node">
<title>e</title>
<ellipse fill="none" stroke="#000000" stroke-width="3" cx="493" cy="-72.5685" rx="202.0078" ry="56.6372"/>
<text text-anchor="middle" x="493" y="-90.5685" font-family="Helvetica,sans-Serif" font-size="20.00" fill="#000000">Complementary Specialization</text>
<text text-anchor="middle" x="493" y="-66.5685" font-family="Helvetica,sans-Serif" font-size="20.00" fill="#000000"> (H₂ʹ)</text>
<text text-anchor="middle" x="493" y="-42.5685" font-family="Helvetica,sans-Serif" font-size="20.00" fill="#000000">R² = 0.22</text>
</g>
<!-- b&#45;&gt;e -->
<g id="edge6" class="edge">
<title>b&#45;&gt;e</title>
<path fill="none" stroke="transparent" stroke-width="2" d="M487.5917,-329.0728C488.514,-285.3309 490.3201,-199.6703 491.5907,-139.4099"/>
<polygon fill="transparent" stroke="transparent" stroke-width="2" points="495.0939,-139.2911 491.8055,-129.2195 488.0954,-139.1435 495.0939,-139.2911"/>
</g>
<!-- f -->
<g id="node6" class="node">
<title>f</title>
<ellipse fill="none" stroke="#000000" stroke-width="3" cx="805" cy="-72.5685" rx="91.4116" ry="39.6962"/>
<text text-anchor="middle" x="805" y="-78.5685" font-family="Helvetica,sans-Serif" font-size="20.00" fill="#000000">Modularity Q</text>
<text text-anchor="middle" x="805" y="-54.5685" font-family="Helvetica,sans-Serif" font-size="20.00" fill="#000000">R² = 0.67</text>
</g>
<!-- b&#45;&gt;f -->
<g id="edge9" class="edge">
<title>b&#45;&gt;f</title>
<path fill="none" stroke="#ff0000" stroke-width="4" d="M590.3332,-342.7456C674.3416,-328.6791 783.1836,-304.2369 810,-269.1371 841.8209,-227.4869 833.673,-165.088 822.0536,-121.8115"/>
<polygon fill="#ff0000" stroke="#ff0000" stroke-width="4" points="825.3858,-120.7326 819.2924,-112.0653 818.6509,-122.6407 825.3858,-120.7326"/>
<text text-anchor="middle" x="852.829" y="-223.1371" font-family="Times,serif" font-size="20.00" fill="#ff0000">&#45;0.31</text>
</g>
<!-- g -->
<g id="node7" class="node">
<title>g</title>
<ellipse fill="none" stroke="#000000" stroke-width="3" cx="144" cy="-72.5685" rx="128.2478" ry="56.6372"/>
<text text-anchor="middle" x="144" y="-90.5685" font-family="Helvetica,sans-Serif" font-size="20.00" fill="#000000">Nestedness</text>
<text text-anchor="middle" x="144" y="-66.5685" font-family="Helvetica,sans-Serif" font-size="20.00" fill="#000000"> (Weighted NODF)</text>
<text text-anchor="middle" x="144" y="-42.5685" font-family="Helvetica,sans-Serif" font-size="20.00" fill="#000000">R² = 0.62</text>
</g>
<!-- b&#45;&gt;g -->
<g id="edge12" class="edge">
<title>b&#45;&gt;g</title>
<path fill="none" stroke="#000000" stroke-width="4" d="M383.7172,-332.6119C378.7418,-331.436 373.8158,-330.2728 369,-329.1371 255.2591,-302.3135 185.5955,-360.7143 113,-269.1371 83.7692,-232.2632 94.4163,-178.9857 110.7829,-137.1963"/>
<polygon fill="#000000" stroke="#000000" stroke-width="4" points="114.0292,-138.5043 114.5796,-127.9238 107.5513,-135.8518 114.0292,-138.5043"/>
<text text-anchor="middle" x="130.5" y="-223.1371" font-family="Times,serif" font-size="20.00" fill="#000000">0.46</text>
</g>
<!-- c&#45;&gt;d -->
<g id="edge5" class="edge">
<title>c&#45;&gt;d</title>
<path fill="none" stroke="#000000" stroke-width="2" d="M464.7697,-229.1371C480.2019,-229.1371 495.8576,-229.1371 511.2472,-229.1371"/>
<polygon fill="#000000" stroke="#000000" stroke-width="2" points="511.3169,-232.6372 521.3169,-229.1371 511.3169,-225.6372 511.3169,-232.6372"/>
<text text-anchor="middle" x="492.949" y="-238.1371" font-family="Times,serif" font-size="20.00" fill="#000000">0.70</text>
</g>
<!-- c&#45;&gt;e -->
<g id="edge7" class="edge">
<title>c&#45;&gt;e</title>
<path fill="none" stroke="transparent" stroke-width="2" d="M357.8695,-188.8168C377.5604,-171.8774 400.8886,-151.8089 422.5723,-133.1551"/>
<polygon fill="transparent" stroke="transparent" stroke-width="2" points="424.8665,-135.7984 430.1649,-126.6235 420.3014,-130.4918 424.8665,-135.7984"/>
</g>
<!-- c&#45;&gt;f -->
<g id="edge10" class="edge">
<title>c&#45;&gt;f</title>
<path fill="none" stroke="transparent" stroke-width="2" d="M464.7614,-197.7012C480.6934,-194.6945 496.6604,-191.784 512,-189.1371 566.4443,-179.7423 582.2444,-187.5472 635,-171.1371 667.6447,-160.9826 674.2186,-153.9257 704,-137.1371 718.1126,-129.1814 732.9814,-120.0938 746.8415,-111.2983"/>
<polygon fill="transparent" stroke="transparent" stroke-width="2" points="748.7867,-114.2088 755.3252,-105.8723 745.0151,-108.3118 748.7867,-114.2088"/>
</g>
<!-- c&#45;&gt;g -->
<g id="edge13" class="edge">
<title>c&#45;&gt;g</title>
<path fill="none" stroke="#ff0000" stroke-width="4" d="M267.9934,-188.8168C249.2296,-171.2251 226.8663,-150.2587 206.3317,-131.0068"/>
<polygon fill="#ff0000" stroke="#ff0000" stroke-width="4" points="208.5482,-128.2872 198.8591,-124.0009 203.7605,-133.3939 208.5482,-128.2872"/>
<text text-anchor="middle" x="255.329" y="-153.1371" font-family="Times,serif" font-size="20.00" fill="#ff0000">&#45;1</text>
</g>
<!-- d&#45;&gt;e -->
<g id="edge8" class="edge">
<title>d&#45;&gt;e</title>
<path fill="none" stroke="#000000" stroke-width="4" d="M617.7358,-188.8168C599.8046,-172.1057 578.6057,-152.3493 558.8202,-133.9101"/>
<polygon fill="#000000" stroke="#000000" stroke-width="4" points="561.018,-131.174 551.3162,-126.9167 556.2456,-136.2949 561.018,-131.174"/>
<text text-anchor="middle" x="613.5" y="-153.1371" font-family="Times,serif" font-size="20.00" fill="#000000">0.46</text>
</g>
<!-- d&#45;&gt;f -->
<g id="edge11" class="edge">
<title>d&#45;&gt;f</title>
<path fill="none" stroke="#000000" stroke-width="4" d="M698.0836,-188.8168C718.2982,-166.8378 743.3578,-139.5909 764.1339,-117.0015"/>
<polygon fill="#000000" stroke="#000000" stroke-width="4" points="766.8089,-119.2633 771.0023,-109.5337 761.6566,-114.5247 766.8089,-119.2633"/>
<text text-anchor="middle" x="750.5" y="-153.1371" font-family="Times,serif" font-size="20.00" fill="#000000">0.83</text>
</g>
<!-- d&#45;&gt;g -->
<g id="edge14" class="edge">
<title>d&#45;&gt;g</title>
<path fill="none" stroke="transparent" stroke-width="2" d="M521.2729,-198.278C432.381,-178.056 325.9981,-152.5961 282,-137.1371 267.4654,-132.0302 252.4013,-125.905 237.8011,-119.4891"/>
<polygon fill="transparent" stroke="transparent" stroke-width="2" points="238.8419,-116.1208 228.2839,-115.2388 235.9874,-122.5124 238.8419,-116.1208"/>
</g>
</g>
</svg>

