<?xml version="1.0" encoding="UTF-8" standalone="no"?>
<!DOCTYPE svg PUBLIC "-//W3C//DTD SVG 1.1//EN"
 "http://www.w3.org/Graphics/SVG/1.1/DTD/svg11.dtd">
<!-- Generated by graphviz version 2.40.1 (20161225.0304)
 -->
<!-- Title: dot Pages: 1 -->
<svg width="364pt" height="410pt"
 viewBox="0.00 0.00 364.13 410.00" xmlns="http://www.w3.org/2000/svg" xmlns:xlink="http://www.w3.org/1999/xlink">
<g id="graph0" class="graph" transform="scale(1 1) rotate(0) translate(4 406)">
<title>dot</title>
<polygon fill="#ffffff" stroke="transparent" points="-4,4 -4,-406 360.131,-406 360.131,4 -4,4"/>
<text text-anchor="middle" x="178.0655" y="-375.5" font-family="Times,serif" font-size="25.00" fill="#000000">Hypothesized Floral SEM</text>
<!-- a -->
<g id="node1" class="node">
<title>a</title>
<polygon fill="none" stroke="#000000" stroke-width="3" points="262.0203,-364 163.5317,-364 163.5317,-328 262.0203,-328 262.0203,-364"/>
<text text-anchor="middle" x="212.776" y="-340" font-family="Helvetica,sans-Serif" font-size="20.00" fill="#000000">Elevation</text>
</g>
<!-- b -->
<g id="node2" class="node">
<title>b</title>
<polygon fill="none" stroke="#000000" stroke-width="3" points="355.9862,-292 183.5658,-292 183.5658,-256 355.9862,-256 355.9862,-292"/>
<text text-anchor="middle" x="269.776" y="-268" font-family="Helvetica,sans-Serif" font-size="20.00" fill="#000000">Floral Abundance</text>
</g>
<!-- a&#45;&gt;b -->
<g id="edge1" class="edge">
<title>a&#45;&gt;b</title>
<path fill="none" stroke="#000000" stroke-width="2" d="M227.1595,-327.8314C233.7246,-319.5386 241.6267,-309.557 248.8338,-300.4533"/>
<polygon fill="#000000" stroke="#000000" stroke-width="2" points="251.7359,-302.4262 255.1988,-292.4133 246.2476,-298.0813 251.7359,-302.4262"/>
</g>
<!-- c -->
<g id="node3" class="node">
<title>c</title>
<polygon fill="none" stroke="#000000" stroke-width="3" points="290.0081,-220 21.5439,-220 21.5439,-164 290.0081,-164 290.0081,-220"/>
<text text-anchor="middle" x="155.776" y="-198" font-family="Helvetica,sans-Serif" font-size="20.00" fill="#000000">Floral Phylogenetic Diversity</text>
<text text-anchor="middle" x="155.776" y="-174" font-family="Helvetica,sans-Serif" font-size="20.00" fill="#000000"> (Faithʹs PD)</text>
</g>
<!-- a&#45;&gt;c -->
<g id="edge2" class="edge">
<title>a&#45;&gt;c</title>
<path fill="none" stroke="#000000" stroke-width="2" d="M196.9228,-327.6889C189.1143,-317.7467 180.2285,-304.8789 174.776,-292 166.5214,-272.5025 161.8317,-249.3513 159.178,-230.2371"/>
<polygon fill="#000000" stroke="#000000" stroke-width="2" points="162.6216,-229.5686 157.9035,-220.0823 155.6761,-230.4403 162.6216,-229.5686"/>
</g>
<!-- b&#45;&gt;c -->
<g id="edge4" class="edge">
<title>b&#45;&gt;c</title>
<path fill="none" stroke="#000000" stroke-width="2" d="M236.2699,-249.8991C225.9316,-242.4628 214.3436,-234.1276 203.2509,-226.1486"/>
<polygon fill="#000000" stroke="#000000" stroke-width="2" points="234.3139,-252.8035 244.4757,-255.8015 238.4014,-247.1209 234.3139,-252.8035"/>
<polygon fill="#000000" stroke="#000000" stroke-width="2" points="205.0555,-223.1353 194.8937,-220.1373 200.968,-228.8179 205.0555,-223.1353"/>
</g>
<!-- e -->
<g id="node5" class="node">
<title>e</title>
<polygon fill="none" stroke="#000000" stroke-width="3" points="351.5741,-36 207.9779,-36 207.9779,0 351.5741,0 351.5741,-36"/>
<text text-anchor="middle" x="279.776" y="-12" font-family="Helvetica,sans-Serif" font-size="20.00" fill="#000000">Network Index</text>
</g>
<!-- b&#45;&gt;e -->
<g id="edge3" class="edge">
<title>b&#45;&gt;e</title>
<path fill="none" stroke="#000000" stroke-width="2" d="M282.3882,-255.9415C288.6527,-245.866 295.5572,-232.7967 298.776,-220 314.0777,-159.1655 298.8956,-85.2167 288.2368,-45.8389"/>
<polygon fill="#000000" stroke="#000000" stroke-width="2" points="291.5875,-44.8248 285.5127,-36.1445 284.8485,-46.7185 291.5875,-44.8248"/>
</g>
<!-- d -->
<g id="node4" class="node">
<title>d</title>
<polygon fill="none" stroke="#000000" stroke-width="3" points="251.3284,-128 .2236,-128 .2236,-72 251.3284,-72 251.3284,-128"/>
<text text-anchor="middle" x="125.776" y="-106" font-family="Helvetica,sans-Serif" font-size="20.00" fill="#000000">Floral Functional Diversity </text>
<text text-anchor="middle" x="125.776" y="-82" font-family="Helvetica,sans-Serif" font-size="20.00" fill="#000000"> (Trait Spaces)</text>
</g>
<!-- c&#45;&gt;d -->
<g id="edge5" class="edge">
<title>c&#45;&gt;d</title>
<path fill="none" stroke="#000000" stroke-width="2" d="M146.612,-163.8971C143.9328,-155.6808 140.9593,-146.5621 138.1173,-137.8468"/>
<polygon fill="#000000" stroke="#000000" stroke-width="2" points="141.4151,-136.6701 134.9873,-128.2479 134.76,-138.8403 141.4151,-136.6701"/>
</g>
<!-- c&#45;&gt;e -->
<g id="edge6" class="edge">
<title>c&#45;&gt;e</title>
<path fill="none" stroke="#000000" stroke-width="2" d="M221.1693,-163.8942C236.2711,-154.5308 250.8116,-142.6521 260.776,-128 277.2205,-103.8192 280.8805,-69.9283 281.1138,-46.1745"/>
<polygon fill="#000000" stroke="#000000" stroke-width="2" points="284.6124,-46.01 281.0135,-36.0452 277.6128,-46.0794 284.6124,-46.01"/>
</g>
<!-- d&#45;&gt;e -->
<g id="edge7" class="edge">
<title>d&#45;&gt;e</title>
<path fill="none" stroke="#000000" stroke-width="2" d="M178.7741,-71.7803C197.593,-61.7598 218.5373,-50.6076 236.4526,-41.0683"/>
<polygon fill="#000000" stroke="#000000" stroke-width="2" points="238.336,-44.0307 245.5177,-36.2414 235.046,-37.8521 238.336,-44.0307"/>
</g>
</g>
</svg>

