<?xml version="1.0" encoding="UTF-8" standalone="no"?>
<!DOCTYPE svg PUBLIC "-//W3C//DTD SVG 1.1//EN"
 "http://www.w3.org/Graphics/SVG/1.1/DTD/svg11.dtd">
<!-- Generated by graphviz version 2.40.1 (20161225.0304)
 -->
<!-- Title: dot Pages: 1 -->
<svg width="403pt" height="557pt"
 viewBox="0.00 0.00 402.91 557.00" xmlns="http://www.w3.org/2000/svg" xmlns:xlink="http://www.w3.org/1999/xlink">
<g id="graph0" class="graph" transform="scale(1 1) rotate(0) translate(4 553)">
<title>dot</title>
<polygon fill="#ffffff" stroke="transparent" points="-4,4 -4,-553 398.91,-553 398.91,4 -4,4"/>
<!-- a -->
<g id="node1" class="node">
<title>a</title>
<polygon fill="none" stroke="#000000" stroke-width="3" points="246.2593,-549 147.7707,-549 147.7707,-513 246.2593,-513 246.2593,-549"/>
<text text-anchor="middle" x="197.015" y="-525" font-family="Helvetica,sans-Serif" font-size="20.00" fill="#000000">Elevation</text>
</g>
<!-- b -->
<g id="node2" class="node">
<title>b</title>
<polygon fill="none" stroke="#000000" stroke-width="3" points="222.2252,-453 49.8048,-453 49.8048,-397 222.2252,-397 222.2252,-453"/>
<text text-anchor="middle" x="136.015" y="-431" font-family="Helvetica,sans-Serif" font-size="20.00" fill="#000000">Floral Abundance</text>
<text text-anchor="middle" x="136.015" y="-407" font-family="Helvetica,sans-Serif" font-size="20.00" fill="#000000">R² = 0.19</text>
</g>
<!-- a&#45;&gt;b -->
<g id="edge1" class="edge">
<title>a&#45;&gt;b</title>
<path fill="none" stroke="#ff0000" stroke-width="2" d="M186.3896,-512.5362C178.3669,-498.5951 167.0947,-479.0074 157.2469,-461.8948"/>
<polygon fill="#ff0000" stroke="#ff0000" stroke-width="2" points="160.2731,-460.1362 152.2517,-453.2146 154.206,-463.6277 160.2731,-460.1362"/>
<text text-anchor="middle" x="196.844" y="-477" font-family="Times,serif" font-size="20.00" fill="#000000">&#45;0.44</text>
</g>
<!-- c -->
<g id="node3" class="node">
<title>c</title>
<polygon fill="none" stroke="#000000" stroke-width="3" points="394.8051,-337 121.2249,-337 121.2249,-257 394.8051,-257 394.8051,-337"/>
<text text-anchor="middle" x="258.015" y="-315" font-family="Helvetica,sans-Serif" font-size="20.00" fill="#000000">Floral Phylogenetic Diversity,</text>
<text text-anchor="middle" x="258.015" y="-291" font-family="Helvetica,sans-Serif" font-size="20.00" fill="#000000"> (Faithʹs PD)</text>
<text text-anchor="middle" x="258.015" y="-267" font-family="Helvetica,sans-Serif" font-size="20.00" fill="#000000">R² = 0.20</text>
</g>
<!-- a&#45;&gt;c -->
<g id="edge2" class="edge">
<title>a&#45;&gt;c</title>
<path fill="none" stroke="#ff0000" stroke-width="2" d="M211.7427,-512.7748C215.5654,-507.3175 219.3518,-501.1437 222.015,-495 242.6398,-447.4215 251.4501,-388.4574 255.2127,-347.3027"/>
<polygon fill="#ff0000" stroke="#ff0000" stroke-width="2" points="258.7083,-347.5008 256.0646,-337.2411 251.7333,-346.9102 258.7083,-347.5008"/>
<text text-anchor="middle" x="269.844" y="-419" font-family="Times,serif" font-size="20.00" fill="#000000">&#45;0.45</text>
</g>
<!-- b&#45;&gt;c -->
<g id="edge4" class="edge">
<title>b&#45;&gt;c</title>
<path fill="none" stroke="#000000" stroke-width="2" d="M169.688,-389.671C182.8994,-375.8098 198.2665,-359.6869 212.4437,-344.8126"/>
<polygon fill="#000000" stroke="#000000" stroke-width="2" points="167.1543,-387.2563 162.7884,-396.9099 172.2214,-392.0859 167.1543,-387.2563"/>
<polygon fill="#000000" stroke="#000000" stroke-width="2" points="215.3653,-346.8201 219.7312,-337.1666 210.2982,-341.9905 215.3653,-346.8201"/>
<text text-anchor="middle" x="218.515" y="-361" font-family="Times,serif" font-size="20.00" fill="#000000">0.54</text>
</g>
<!-- e -->
<g id="node5" class="node">
<title>e</title>
<polygon fill="none" stroke="#000000" stroke-width="3" points="286.045,-80 -.015,-80 -.015,0 286.045,0 286.045,-80"/>
<text text-anchor="middle" x="143.015" y="-58" font-family="Helvetica,sans-Serif" font-size="20.00" fill="#000000">Complementary Specialization</text>
<text text-anchor="middle" x="143.015" y="-34" font-family="Helvetica,sans-Serif" font-size="20.00" fill="#000000"> (H₂ʹ)</text>
<text text-anchor="middle" x="143.015" y="-10" font-family="Helvetica,sans-Serif" font-size="20.00" fill="#000000">R² = 0.13</text>
</g>
<!-- b&#45;&gt;e -->
<g id="edge3" class="edge">
<title>b&#45;&gt;e</title>
<path fill="none" stroke="#c0c0c0" stroke-width="2" d="M126.2821,-396.8599C120.8938,-379.7784 114.7475,-357.4043 112.015,-337 100.4362,-250.5386 117.4715,-149.4252 130.5078,-90.2746"/>
<polygon fill="#c0c0c0" stroke="#c0c0c0" stroke-width="2" points="133.9397,-90.9659 132.7238,-80.4411 127.1109,-89.427 133.9397,-90.9659"/>
<text text-anchor="middle" x="128.515" y="-221" font-family="Times,serif" font-size="20.00" fill="#000000">0.35</text>
</g>
<!-- d -->
<g id="node4" class="node">
<title>d</title>
<polygon fill="none" stroke="#000000" stroke-width="3" points="372.5376,-197 171.4924,-197 171.4924,-117 372.5376,-117 372.5376,-197"/>
<text text-anchor="middle" x="272.015" y="-175" font-family="Helvetica,sans-Serif" font-size="20.00" fill="#000000">Floral Color Diversity</text>
<text text-anchor="middle" x="272.015" y="-151" font-family="Helvetica,sans-Serif" font-size="20.00" fill="#000000"> (Color Trait Spaces)</text>
<text text-anchor="middle" x="272.015" y="-127" font-family="Helvetica,sans-Serif" font-size="20.00" fill="#000000">R² = 0.37</text>
</g>
<!-- c&#45;&gt;d -->
<g id="edge5" class="edge">
<title>c&#45;&gt;d</title>
<path fill="none" stroke="#000000" stroke-width="2" d="M262.0268,-256.8816C263.5646,-241.5043 265.3391,-223.7586 266.962,-207.5297"/>
<polygon fill="#000000" stroke="#000000" stroke-width="2" points="270.4901,-207.4229 268.0026,-197.1242 263.5248,-206.7263 270.4901,-207.4229"/>
<text text-anchor="middle" x="283.515" y="-221" font-family="Times,serif" font-size="20.00" fill="#000000">0.61</text>
</g>
<!-- c&#45;&gt;e -->
<g id="edge6" class="edge">
<title>c&#45;&gt;e</title>
<path fill="none" stroke="transparent" stroke-width="2" d="M207.7619,-256.7807C190.4199,-240.1609 172.6857,-219.5072 162.015,-197 146.2543,-163.7566 141.7873,-122.2997 141.1091,-90.3357"/>
<polygon fill="transparent" stroke="transparent" stroke-width="2" points="144.6088,-90.2795 141.0125,-80.3137 137.6091,-90.347 144.6088,-90.2795"/>
</g>
<!-- d&#45;&gt;e -->
<g id="edge7" class="edge">
<title>d&#45;&gt;e</title>
<path fill="none" stroke="transparent" stroke-width="2" d="M227.6205,-116.7352C217.0801,-107.1753 205.7437,-96.8935 194.9021,-87.0604"/>
<polygon fill="transparent" stroke="transparent" stroke-width="2" points="197.2499,-84.4646 187.4913,-80.339 192.5472,-89.6497 197.2499,-84.4646"/>
</g>
</g>
</svg>

