<?xml version="1.0" encoding="UTF-8" standalone="no"?>
<!DOCTYPE svg PUBLIC "-//W3C//DTD SVG 1.1//EN"
 "http://www.w3.org/Graphics/SVG/1.1/DTD/svg11.dtd">
<!-- Generated by graphviz version 2.40.1 (20161225.0304)
 -->
<!-- Title: dot Pages: 1 -->
<svg width="436pt" height="410pt"
 viewBox="0.00 0.00 435.93 410.00" xmlns="http://www.w3.org/2000/svg" xmlns:xlink="http://www.w3.org/1999/xlink">
<g id="graph0" class="graph" transform="scale(1 1) rotate(0) translate(4 406)">
<title>dot</title>
<polygon fill="#ffffff" stroke="transparent" points="-4,4 -4,-406 431.93,-406 431.93,4 -4,4"/>
<text text-anchor="middle" x="213.965" y="-375.5" font-family="Times,serif" font-size="25.00" fill="#000000">Hypothesized Pollinator SEM</text>
<!-- a -->
<g id="node1" class="node">
<title>a</title>
<polygon fill="none" stroke="#000000" stroke-width="2" points="329.7812,-364 157.3608,-364 157.3608,-328 329.7812,-328 329.7812,-364"/>
<text text-anchor="middle" x="243.571" y="-340" font-family="Helvetica,sans-Serif" font-size="20.00" fill="#000000">Floral Abundance</text>
</g>
<!-- b -->
<g id="node2" class="node">
<title>b</title>
<polygon fill="none" stroke="#000000" stroke-width="2" points="425.633,-292 219.509,-292 219.509,-256 425.633,-256 425.633,-292"/>
<text text-anchor="middle" x="322.571" y="-268" font-family="Helvetica,sans-Serif" font-size="20.00" fill="#000000">Pollinator Abundance</text>
</g>
<!-- a&#45;&gt;b -->
<g id="edge1" class="edge">
<title>a&#45;&gt;b</title>
<path fill="none" stroke="#000000" stroke-width="2" d="M263.506,-327.8314C273.0493,-319.1337 284.6309,-308.5783 295.0016,-299.1265"/>
<polygon fill="#000000" stroke="#000000" stroke-width="2" points="297.609,-301.4857 302.6423,-292.1628 292.8938,-296.3121 297.609,-301.4857"/>
</g>
<!-- c -->
<g id="node3" class="node">
<title>c</title>
<polygon fill="none" stroke="#000000" stroke-width="2" points="307.213,-220 -.071,-220 -.071,-164 307.213,-164 307.213,-220"/>
<text text-anchor="middle" x="153.571" y="-198" font-family="Helvetica,sans-Serif" font-size="20.00" fill="#000000">Pollinator Phylogenetic Diversity,</text>
<text text-anchor="middle" x="153.571" y="-174" font-family="Helvetica,sans-Serif" font-size="20.00" fill="#000000"> (Faithʹs PD)</text>
</g>
<!-- a&#45;&gt;c -->
<g id="edge2" class="edge">
<title>a&#45;&gt;c</title>
<path fill="none" stroke="#000000" stroke-width="2" d="M232.129,-327.5897C225.7131,-317.1888 217.6089,-303.9211 210.571,-292 198.3481,-271.2963 185.0243,-247.9656 174.3341,-229.05"/>
<polygon fill="#000000" stroke="#000000" stroke-width="2" points="177.2753,-227.1403 169.3141,-220.1497 171.1783,-230.5793 177.2753,-227.1403"/>
</g>
<!-- b&#45;&gt;c -->
<g id="edge4" class="edge">
<title>b&#45;&gt;c</title>
<path fill="none" stroke="#000000" stroke-width="2" d="M275.8971,-251.3535C258.8703,-243.092 239.2615,-233.5776 220.8014,-224.6207"/>
<polygon fill="#000000" stroke="#000000" stroke-width="2" points="274.5396,-254.585 285.0644,-255.8015 277.5954,-248.2872 274.5396,-254.585"/>
<polygon fill="#000000" stroke="#000000" stroke-width="2" points="222.086,-221.3538 211.5612,-220.1373 219.0302,-227.6516 222.086,-221.3538"/>
</g>
<!-- d -->
<g id="node4" class="node">
<title>d</title>
<polygon fill="none" stroke="#000000" stroke-width="2" points="405.975,-128 121.167,-128 121.167,-72 405.975,-72 405.975,-128"/>
<text text-anchor="middle" x="263.571" y="-106" font-family="Helvetica,sans-Serif" font-size="20.00" fill="#000000">Pollinator Functional Diversity </text>
<text text-anchor="middle" x="263.571" y="-82" font-family="Helvetica,sans-Serif" font-size="20.00" fill="#000000"> (Trait Spaces)</text>
</g>
<!-- b&#45;&gt;d -->
<g id="edge5" class="edge">
<title>b&#45;&gt;d</title>
<path fill="none" stroke="#000000" stroke-width="2" d="M325.7885,-245.6839C327.2792,-222.8382 326.8615,-190.2913 316.571,-164 312.7059,-154.1249 306.6906,-144.6441 300.0786,-136.1454"/>
<polygon fill="#000000" stroke="#000000" stroke-width="2" points="322.2925,-245.4934 324.9683,-255.7448 329.2693,-246.0623 322.2925,-245.4934"/>
<polygon fill="#000000" stroke="#000000" stroke-width="2" points="302.6763,-133.7946 293.6072,-128.3172 297.2812,-138.2547 302.6763,-133.7946"/>
</g>
<!-- e -->
<g id="node5" class="node">
<title>e</title>
<polygon fill="none" stroke="#000000" stroke-width="2" points="335.3691,-36 191.7729,-36 191.7729,0 335.3691,0 335.3691,-36"/>
<text text-anchor="middle" x="263.571" y="-12" font-family="Helvetica,sans-Serif" font-size="20.00" fill="#000000">Network Index</text>
</g>
<!-- b&#45;&gt;e -->
<g id="edge3" class="edge">
<title>b&#45;&gt;e</title>
<path fill="none" stroke="#000000" stroke-width="2" d="M342.8265,-255.8064C381.4231,-218.9165 457.9557,-133.5905 414.571,-72 405.6736,-59.3689 376.1085,-47.5401 345.4691,-38.1922"/>
<polygon fill="#000000" stroke="#000000" stroke-width="2" points="346.0903,-34.7261 335.5083,-35.2464 344.1051,-41.4387 346.0903,-34.7261"/>
</g>
<!-- c&#45;&gt;d -->
<g id="edge6" class="edge">
<title>c&#45;&gt;d</title>
<path fill="none" stroke="#000000" stroke-width="2" d="M187.1723,-163.8971C198.158,-154.709 210.4932,-144.3924 221.9942,-134.7733"/>
<polygon fill="#000000" stroke="#000000" stroke-width="2" points="224.3711,-137.3482 229.7964,-128.2479 219.8801,-131.9787 224.3711,-137.3482"/>
</g>
<!-- c&#45;&gt;e -->
<g id="edge7" class="edge">
<title>c&#45;&gt;e</title>
<path fill="none" stroke="#000000" stroke-width="2" d="M130.2846,-163.7302C112.095,-138.0043 92.9195,-99.898 112.571,-72 121.4684,-59.3689 151.0335,-47.5401 181.6729,-38.1922"/>
<polygon fill="#000000" stroke="#000000" stroke-width="2" points="183.0369,-41.4387 191.6337,-35.2464 181.0517,-34.7261 183.0369,-41.4387"/>
</g>
<!-- d&#45;&gt;e -->
<g id="edge8" class="edge">
<title>d&#45;&gt;e</title>
<path fill="none" stroke="#000000" stroke-width="2" d="M263.571,-71.7803C263.571,-63.6628 263.571,-54.8027 263.571,-46.659"/>
<polygon fill="#000000" stroke="#000000" stroke-width="2" points="267.0711,-46.4886 263.571,-36.4887 260.0711,-46.4887 267.0711,-46.4886"/>
</g>
</g>
</svg>

