<?xml version="1.0" encoding="UTF-8" standalone="no"?>
<!DOCTYPE svg PUBLIC "-//W3C//DTD SVG 1.1//EN"
 "http://www.w3.org/Graphics/SVG/1.1/DTD/svg11.dtd">
<!-- Generated by graphviz version 2.40.1 (20161225.0304)
 -->
<!-- Title: dot Pages: 1 -->
<svg width="453pt" height="580pt"
 viewBox="0.00 0.00 453.43 580.00" xmlns="http://www.w3.org/2000/svg" xmlns:xlink="http://www.w3.org/1999/xlink">
<g id="graph0" class="graph" transform="scale(1 1) rotate(0) translate(4 576)">
<title>dot</title>
<polygon fill="#ffffff" stroke="transparent" points="-4,4 -4,-576 449.4274,-576 449.4274,4 -4,4"/>
<!-- a -->
<g id="node1" class="node">
<title>a</title>
<polygon fill="none" stroke="#000000" stroke-width="2" points="264.7812,-572 92.3608,-572 92.3608,-536 264.7812,-536 264.7812,-572"/>
<text text-anchor="middle" x="178.571" y="-548" font-family="Helvetica,sans-Serif" font-size="20.00" fill="#000000">Floral Abundance</text>
</g>
<!-- b -->
<g id="node2" class="node">
<title>b</title>
<polygon fill="none" stroke="#000000" stroke-width="2" points="438.633,-476 232.509,-476 232.509,-420 438.633,-420 438.633,-476"/>
<text text-anchor="middle" x="335.571" y="-454" font-family="Helvetica,sans-Serif" font-size="20.00" fill="#000000">Pollinator Abundance</text>
<text text-anchor="middle" x="335.571" y="-430" font-family="Helvetica,sans-Serif" font-size="20.00" fill="#000000">R² = 0.27</text>
</g>
<!-- a&#45;&gt;b -->
<g id="edge1" class="edge">
<title>a&#45;&gt;b</title>
<path fill="none" stroke="#000000" stroke-width="2" d="M205.5603,-535.778C227.4741,-520.9826 258.9764,-499.7135 285.4828,-481.8175"/>
<polygon fill="#000000" stroke="#000000" stroke-width="2" points="287.5654,-484.6345 293.8948,-476.1381 283.6484,-478.833 287.5654,-484.6345"/>
<text text-anchor="middle" x="283.071" y="-500" font-family="Times,serif" font-size="20.00" fill="#000000">0.52</text>
</g>
<!-- c -->
<g id="node3" class="node">
<title>c</title>
<polygon fill="none" stroke="#000000" stroke-width="2" points="307.213,-360 -.071,-360 -.071,-280 307.213,-280 307.213,-360"/>
<text text-anchor="middle" x="153.571" y="-338" font-family="Helvetica,sans-Serif" font-size="20.00" fill="#000000">Pollinator Phylogenetic Diversity,</text>
<text text-anchor="middle" x="153.571" y="-314" font-family="Helvetica,sans-Serif" font-size="20.00" fill="#000000"> (Faithʹs PD)</text>
<text text-anchor="middle" x="153.571" y="-290" font-family="Helvetica,sans-Serif" font-size="20.00" fill="#000000">R² = 0.62</text>
</g>
<!-- a&#45;&gt;c -->
<g id="edge2" class="edge">
<title>a&#45;&gt;c</title>
<path fill="none" stroke="#000000" stroke-width="2" d="M176.6093,-535.6384C172.8431,-500.387 164.4823,-422.1294 158.9371,-370.2264"/>
<polygon fill="#000000" stroke="#000000" stroke-width="2" points="162.4104,-369.7893 157.8678,-360.2177 155.45,-370.533 162.4104,-369.7893"/>
<text text-anchor="middle" x="188.071" y="-442" font-family="Times,serif" font-size="20.00" fill="#000000">0.79</text>
</g>
<!-- b&#45;&gt;c -->
<g id="edge4" class="edge">
<title>b&#45;&gt;c</title>
<path fill="none" stroke="#000000" stroke-width="2" d="M287.2042,-413.9838C266.2589,-399.253 241.4203,-381.7842 218.8742,-365.9275"/>
<polygon fill="#000000" stroke="#000000" stroke-width="2" points="285.4372,-417.02 295.6303,-419.9099 289.4641,-411.2942 285.4372,-417.02"/>
<polygon fill="#000000" stroke="#000000" stroke-width="2" points="220.876,-363.0565 210.6829,-360.1666 216.8491,-368.7822 220.876,-363.0565"/>
<text text-anchor="middle" x="283.071" y="-384" font-family="Times,serif" font-size="20.00" fill="#000000">0.46</text>
</g>
<!-- d -->
<g id="node4" class="node">
<title>d</title>
<polygon fill="none" stroke="#000000" stroke-width="2" points="419.4172,-220 139.7248,-220 139.7248,-140 419.4172,-140 419.4172,-220"/>
<text text-anchor="middle" x="279.571" y="-198" font-family="Helvetica,sans-Serif" font-size="20.00" fill="#000000">Pollinator Functional Diversity</text>
<text text-anchor="middle" x="279.571" y="-174" font-family="Helvetica,sans-Serif" font-size="20.00" fill="#000000"> (Trait Spaces)</text>
<text text-anchor="middle" x="279.571" y="-150" font-family="Helvetica,sans-Serif" font-size="20.00" fill="#000000">R² = 0.49</text>
</g>
<!-- b&#45;&gt;d -->
<g id="edge5" class="edge">
<title>b&#45;&gt;d</title>
<path fill="none" stroke="#000000" stroke-width="2" d="M333.8908,-409.9241C331.7572,-375.576 327.0036,-323.8648 316.571,-280 312.5983,-263.2966 306.6475,-245.5702 300.6734,-229.7546"/>
<polygon fill="#000000" stroke="#000000" stroke-width="2" points="330.4017,-410.2168 334.4722,-419.9985 337.3901,-409.8134 330.4017,-410.2168"/>
<polygon fill="#000000" stroke="#000000" stroke-width="2" points="303.8414,-228.2431 296.9681,-220.1803 297.3132,-230.7695 303.8414,-228.2431"/>
<text text-anchor="middle" x="346.071" y="-314" font-family="Times,serif" font-size="20.00" fill="#000000">0.50</text>
</g>
<!-- e -->
<g id="node5" class="node">
<title>e</title>
<polygon fill="none" stroke="#000000" stroke-width="2" points="422.601,-80 136.541,-80 136.541,0 422.601,0 422.601,-80"/>
<text text-anchor="middle" x="279.571" y="-58" font-family="Helvetica,sans-Serif" font-size="20.00" fill="#000000">Complementary Specialization</text>
<text text-anchor="middle" x="279.571" y="-34" font-family="Helvetica,sans-Serif" font-size="20.00" fill="#000000"> (H₂ʹ)</text>
<text text-anchor="middle" x="279.571" y="-10" font-family="Helvetica,sans-Serif" font-size="20.00" fill="#000000">R² = 0.22</text>
</g>
<!-- b&#45;&gt;e -->
<g id="edge3" class="edge">
<title>b&#45;&gt;e</title>
<path fill="none" stroke="transparent" stroke-width="2" d="M357.9439,-419.8121C399.4465,-363.8514 479.6861,-235.8653 428.571,-140 416.9121,-118.134 398.1139,-100.2019 377.7384,-85.8701"/>
<polygon fill="transparent" stroke="transparent" stroke-width="2" points="379.4914,-82.831 369.2413,-80.1504 375.5825,-88.638 379.4914,-82.831"/>
</g>
<!-- c&#45;&gt;d -->
<g id="edge6" class="edge">
<title>c&#45;&gt;d</title>
<path fill="none" stroke="#000000" stroke-width="2" d="M189.6775,-279.8816C204.3079,-263.6256 221.3205,-244.7228 236.5841,-227.7632"/>
<polygon fill="#000000" stroke="#000000" stroke-width="2" points="239.371,-229.8986 243.4592,-220.1242 234.168,-225.2158 239.371,-229.8986"/>
<text text-anchor="middle" x="242.071" y="-244" font-family="Times,serif" font-size="20.00" fill="#000000">0.70</text>
</g>
<!-- c&#45;&gt;e -->
<g id="edge7" class="edge">
<title>c&#45;&gt;e</title>
<path fill="none" stroke="transparent" stroke-width="2" d="M135.4716,-279.6441C121.2227,-241.4571 107.2997,-183.6449 130.571,-140 142.2299,-118.134 161.0281,-100.2019 181.4036,-85.8701"/>
<polygon fill="transparent" stroke="transparent" stroke-width="2" points="183.5595,-88.638 189.9007,-80.1504 179.6506,-82.831 183.5595,-88.638"/>
</g>
<!-- d&#45;&gt;e -->
<g id="edge8" class="edge">
<title>d&#45;&gt;e</title>
<path fill="none" stroke="#000000" stroke-width="2" d="M279.571,-139.8816C279.571,-124.5043 279.571,-106.7586 279.571,-90.5297"/>
<polygon fill="#000000" stroke="#000000" stroke-width="2" points="283.0711,-90.1242 279.571,-80.1242 276.0711,-90.1243 283.0711,-90.1242"/>
<text text-anchor="middle" x="297.071" y="-104" font-family="Times,serif" font-size="20.00" fill="#000000">0.46</text>
</g>
</g>
</svg>

